<svg width="768" height="768" viewBox="0 0 768 768" fill="none" xmlns="http://www.w3.org/2000/svg">
<rect width="768" height="768" rx="384" fill="#20EBA8"/>
<path d="M454.297 310.263C483.8 237.945 568.796 297.625 499.253 343.964C495.741 346.305 497.848 366.881 506.278 369.24C523.839 374.155 585.482 365.028 606.728 310.263C633.421 241.456 568.327 200.499 535.078 190.202C454.297 159.309 394.245 220.393 388.267 294.816C386.152 321.15 392.481 368.538 388.267 392.41C384.052 416.282 375.623 430.86 358.062 438.749C295.544 466.834 247.075 369.24 330.666 338.347C336.42 332.929 337.43 329.116 334.881 320.795C243.563 249.179 128.099 383.283 162.079 482.982C217.691 646.15 481.902 610.876 452.892 396.623C450.785 355.198 447.136 327.816 454.297 310.263Z" fill="white"/>
</svg>
